HIERARCHY
ROOT Hips
{
	OFFSET 0.000000 0.000000 0.000000
	CHANNELS 6 Xposition Yposition Zposition Zrotation Yrotation Xrotation 
	JOINT LeftUpLeg_virtual
	{
		OFFSET 0.000000 0.000000 0.000000
		CHANNELS 3 Zrotation Yrotation Xrotation
		JOINT LeftUpLeg
		{
			OFFSET 8.479694 -4.795517 -0.379053
			CHANNELS 3 Zrotation Yrotation Xrotation
			JOINT LeftLeg
			{
				OFFSET 0.485052 -32.551468 0.112863
				CHANNELS 3 Zrotation Yrotation Xrotation
				JOINT LeftFoot
				{
					OFFSET 0.438033 -32.635670 -3.012641
					CHANNELS 3 Zrotation Yrotation Xrotation
					JOINT LeftToeBase
					{
						OFFSET 0.970169 -13.225353 11.864223
						CHANNELS 3 Zrotation Yrotation Xrotation
						End Site
						{
							OFFSET 0.000000 0.000000 0.000000
						}
					}
				}
			}
		}
	}
	JOINT RightUpLeg_virtual
	{
		OFFSET 0.000000 0.000000 0.000000
		CHANNELS 3 Zrotation Yrotation Xrotation
		JOINT RightUpLeg
		{
			OFFSET -8.479694 -4.795517 -0.379053
			CHANNELS 3 Zrotation Yrotation Xrotation
			JOINT RightLeg
			{
				OFFSET -0.484100 -32.551483 0.112903
				CHANNELS 3 Zrotation Yrotation Xrotation
				JOINT RightFoot
				{
					OFFSET -0.438985 -32.635651 -3.012681
					CHANNELS 3 Zrotation Yrotation Xrotation
					JOINT RightToeBase
					{
						OFFSET -0.970169 -13.225354 11.864223
						CHANNELS 3 Zrotation Yrotation Xrotation
						End Site
						{
							OFFSET 0.000000 0.000000 0.000000
						}
					}
				}
			}
		}
	}
	JOINT Spine_virtual
	{
		OFFSET 0.000000 0.000000 0.000000
		CHANNELS 3 Zrotation Yrotation Xrotation
		JOINT Spine
		{
			OFFSET 0.000000 7.722015 1.166203
			CHANNELS 3 Zrotation Yrotation Xrotation
			JOINT Spine1
			{
				OFFSET 0.000000 12.024086 0.248766
				CHANNELS 3 Zrotation Yrotation Xrotation
				JOINT Spine2
				{
					OFFSET -0.000000 11.503036 -0.491240
					CHANNELS 3 Zrotation Yrotation Xrotation
					JOINT Neck_virtual
					{
						OFFSET 0.000000 0.000000 0.000000
						CHANNELS 3 Zrotation Yrotation Xrotation
						JOINT Neck
						{
							OFFSET 0.000000 18.430687 -3.123054
							CHANNELS 3 Zrotation Yrotation Xrotation
							JOINT Head
							{
								OFFSET -0.000000 9.051071 1.034021
								CHANNELS 3 Zrotation Yrotation Xrotation
								End Site
								{
									OFFSET 0.000000 0.000000 0.000000
								}
							}
						}
					}
					JOINT LeftShoulder_virtual
					{
						OFFSET 0.000000 0.000000 0.000000
						CHANNELS 3 Zrotation Yrotation Xrotation
						JOINT LeftShoulder
						{
							OFFSET 6.197824 13.665230 -4.064723
							CHANNELS 3 Zrotation Yrotation Xrotation
							JOINT LeftArm
							{
								OFFSET 7.778132 -0.187073 -1.709282
								CHANNELS 3 Zrotation Yrotation Xrotation
								JOINT LeftForeArm
								{
									OFFSET 21.954697 0.000000 -2.041093
									CHANNELS 3 Zrotation Yrotation Xrotation
									JOINT LeftHand
									{
										OFFSET 22.992908 0.000000 -0.870901
										CHANNELS 3 Zrotation Yrotation Xrotation
										End Site
										{
											OFFSET 0.000000 0.000000 0.000000
										}
									}
								}
							}
						}
					}
					JOINT RightShoulder_virtual
					{
						OFFSET 0.000000 0.000000 0.000000
						CHANNELS 3 Zrotation Yrotation Xrotation
						JOINT RightShoulder
						{
							OFFSET -6.197824 13.665230 -4.064723
							CHANNELS 3 Zrotation Yrotation Xrotation
							JOINT RightArm
							{
								OFFSET -7.778132 -0.187073 -1.709282
								CHANNELS 3 Zrotation Yrotation Xrotation
								JOINT RightForeArm
								{
									OFFSET -21.954697 0.000000 -2.041093
									CHANNELS 3 Zrotation Yrotation Xrotation
									JOINT RightHand
									{
										OFFSET -22.992908 0.000000 -0.870901
										CHANNELS 3 Zrotation Yrotation Xrotation
										End Site
										{
											OFFSET 0.000000 0.000000 0.000000
										}
									}
								}
							}
						}
					}
				}
			}
		}
	}
}
MOTION
Frames: 13
Frame Time: 0.033333
-6.711457 81.679001 -8.908895 179.967780 -4.762153 179.957330 -1.186880 1.561434 13.971330 3.824122 -4.182904 -20.446825 1.188519 1.854729 23.536297 1.585880 -5.192513 -10.770427 0.000000 0.000000 0.000000 2.348943 1.016505 16.008386 -4.728893 -2.586518 -21.776212 0.734889 6.452160 26.760683 10.881246 4.829191 -11.536674 0.000000 0.000000 0.000000 4.317321 4.119897 0.409702 3.420506 -2.610212 -7.360414 -0.155895 -3.220075 7.560639 -0.011960 0.000830 -0.004072 -0.712444 -1.684098 10.897990 1.589939 3.391275 0.871169 0.000000 0.000000 0.000000 1.118409 -1.158888 7.383606 -6.409032 -4.944355 -6.520534 -49.314300 -18.176788 96.390594 8.019239 -35.401601 16.132589 0.000000 0.000000 0.000000 -3.543518 0.294055 6.752529 26.506931 6.051606 10.033976 36.788601 18.055778 4.637322 -1.656965 58.321285 -6.183783 0.000000 0.000000 0.000000 
-6.750599 81.637924 -8.983775 179.962535 -4.767842 -179.996863 -1.139277 1.366592 13.949338 3.926603 -4.317929 -20.504542 1.163916 1.747467 23.859483 1.576876 -5.286431 -11.019639 0.000000 0.000000 0.000000 2.297153 1.003335 15.967760 -4.645979 -2.253736 -22.021322 0.878011 6.673483 27.267674 11.147837 5.086164 -11.936749 0.000000 0.000000 0.000000 4.243006 3.932872 0.548432 3.246367 -2.307956 -7.440963 -0.170232 -3.229954 7.604418 -0.025726 0.007406 0.013822 -0.707772 -1.651184 10.549758 1.687378 3.263577 0.502963 0.000000 0.000000 0.000000 1.079863 -1.181931 7.313998 -7.200873 -4.571347 -6.705771 -49.295890 -18.388490 92.782587 8.018996 -34.640179 15.543055 0.000000 0.000000 0.000000 -3.475422 0.286833 6.776329 26.837201 6.351543 10.190119 36.936321 18.657987 4.518800 -1.524710 55.875336 -5.779959 0.000000 0.000000 0.000000 
-6.684474 81.536156 -9.098123 179.958081 -5.180571 -179.966660 -1.171788 0.709538 14.034290 3.973910 -3.965690 -20.734274 1.098003 1.766073 24.371467 1.601052 -5.429857 -11.456923 0.000000 0.000000 0.000000 2.209699 0.601055 15.908533 -4.446055 -2.109579 -22.226271 0.841825 6.668031 27.875469 11.232524 4.944497 -12.293879 0.000000 0.000000 0.000000 4.277637 3.253829 0.754241 2.955171 -1.967210 -7.421452 -0.292401 -3.238199 7.456500 -0.022907 0.110830 0.077773 -0.845793 -1.419479 10.352043 1.686928 2.997159 0.094876 0.000000 0.000000 0.000000 0.862222 -0.864153 7.363334 -8.898860 -4.460703 -6.694040 -49.198508 -18.350270 84.095953 8.005617 -33.783796 14.521657 0.000000 0.000000 0.000000 -3.578040 0.588074 6.823803 27.602411 6.564175 10.382880 37.172505 19.112346 3.979845 -1.506621 50.650340 -5.272732 0.000000 0.000000 0.000000 
-6.564618 81.420975 -9.210267 179.955240 -5.626043 -179.966114 -1.209732 -0.042295 14.261881 4.164941 -3.795179 -21.083638 1.107102 1.937532 24.957766 1.703468 -5.499866 -11.938780 0.000000 0.000000 0.000000 2.091541 -0.161433 15.847188 -4.251654 -2.244287 -22.420827 0.907547 6.733784 28.447473 11.580770 4.959032 -12.577963 0.000000 0.000000 0.000000 4.321593 2.522026 0.998280 2.554569 -1.379188 -7.449077 -0.433943 -2.956780 7.524733 -0.010643 0.016720 -0.011867 -1.039416 -1.219014 10.337938 1.612807 2.674364 -0.388448 0.000000 0.000000 0.000000 0.655085 -0.654289 7.480065 -11.241172 -4.429838 -6.283434 -48.780391 -17.799207 71.220718 7.920010 -32.624935 13.239159 0.000000 0.000000 0.000000 -3.718486 0.886114 6.894249 28.508153 6.266343 10.517398 37.412341 18.679944 2.847983 -1.679468 44.188066 -4.683681 0.000000 0.000000 0.000000 
-6.418210 81.321312 -9.311891 -179.993093 -6.041692 -179.990115 -1.335174 -0.698476 14.598440 4.418222 -3.748432 -21.527510 1.219962 2.066191 25.458203 1.726012 -5.583473 -12.380630 0.000000 0.000000 0.000000 2.016538 -0.994793 15.840271 -4.016412 -2.645969 -22.638947 1.044231 6.733991 28.842414 12.159643 5.115694 -12.758851 0.000000 0.000000 0.000000 4.331001 1.796129 1.195412 2.185344 -0.915396 -7.446081 -0.472952 -2.690645 7.613848 0.017269 0.037030 0.015733 -1.241798 -0.997538 10.277143 1.437893 2.394907 -0.870501 0.000000 0.000000 0.000000 0.437369 -0.248630 7.440406 -13.578774 -4.656277 -5.587247 -48.269845 -15.872656 56.614864 7.939554 -30.978214 11.601212 0.000000 0.000000 0.000000 -3.879636 1.264518 6.831595 29.144059 5.431037 10.406769 37.868454 16.965722 0.969901 -1.925169 37.884713 -4.053204 0.000000 0.000000 0.000000 
-6.280118 81.273018 -9.457485 179.982793 -6.378694 179.974610 -1.586290 -1.123027 15.007852 4.730167 -3.792430 -21.872286 1.438372 2.078448 25.783735 1.705665 -5.560312 -12.635589 0.000000 0.000000 0.000000 1.876761 -1.605751 15.943767 -3.850050 -3.088605 -22.822433 1.104731 6.726421 29.124394 12.743642 5.155216 -12.807125 0.000000 0.000000 0.000000 4.227423 1.325467 1.388130 1.822073 -0.598974 -7.347260 -0.438710 -2.385315 7.749195 0.019681 0.043391 -0.005746 -1.121576 -0.578291 10.324668 1.316586 2.137813 -1.268373 0.000000 0.000000 0.000000 0.489708 0.159160 7.442363 -15.516344 -5.058670 -4.791969 -47.663707 -12.282812 42.599965 7.704598 -28.893070 10.079388 0.000000 0.000000 0.000000 -3.839584 1.609287 6.815337 29.282763 4.111863 10.324557 38.688408 14.256393 -0.944558 -2.541843 32.798951 -3.713709 0.000000 0.000000 0.000000 
-6.110663 81.281288 -9.614858 179.955363 -6.659249 179.972274 -1.870020 -1.278364 15.293748 5.111382 -3.963833 -22.060784 1.658025 1.984007 25.787376 1.553459 -5.503480 -12.701903 0.000000 0.000000 0.000000 1.837106 -2.034365 16.033101 -3.607531 -3.560022 -23.020213 1.113769 6.695855 29.405867 13.297431 5.096709 -12.653074 0.000000 0.000000 0.000000 3.946935 1.215062 1.511661 1.505421 -0.498106 -7.208841 -0.262357 -2.156666 7.910355 -0.008653 0.020866 -0.017200 -0.855283 -0.204643 10.360031 1.163925 2.053716 -1.585948 0.000000 0.000000 0.000000 0.786861 0.496000 7.422868 -16.474259 -5.475627 -3.862667 -47.355194 -7.464887 31.214381 7.582201 -27.033926 8.676542 0.000000 0.000000 0.000000 -3.638409 1.946418 6.813829 28.793397 2.588078 10.146905 40.151977 10.788733 -2.753225 -2.998516 29.288555 -3.301304 0.000000 0.000000 0.000000 
-5.893717 81.313454 -9.778376 179.914436 -6.690382 -179.993598 -2.139456 -1.097736 15.441922 5.513089 -4.258258 -22.030637 1.857716 1.908828 25.573365 1.258112 -5.458093 -12.644426 0.000000 0.000000 0.000000 1.861077 -1.978432 16.074416 -3.344297 -3.933108 -23.141478 1.077491 6.559458 29.643653 13.714433 4.916428 -12.470751 0.000000 0.000000 0.000000 3.576892 1.509439 1.525393 1.194803 -0.503775 -7.119571 0.026894 -1.949350 8.114227 0.001809 0.033177 -0.046348 -0.500929 -0.042254 10.326005 1.054084 2.099039 -1.713186 0.000000 0.000000 0.000000 1.141376 0.590004 7.411005 -16.527427 -6.065653 -2.822681 -47.726927 -2.053832 23.269215 7.475447 -25.777168 7.475813 0.000000 0.000000 0.000000 -3.346647 2.117152 6.761212 27.782549 0.954771 9.850631 42.307455 6.929739 -3.410267 -3.368526 27.198643 -3.015026 0.000000 0.000000 0.000000 
-5.669780 81.366302 -9.930908 179.871119 -6.433181 179.998434 -2.369714 -0.697130 15.471009 5.872365 -4.453749 -21.812723 2.027139 1.914596 25.232874 0.851061 -5.438669 -12.464337 0.000000 0.000000 0.000000 1.867450 -1.660497 16.070542 -3.131990 -4.017514 -23.098504 1.000079 6.499029 29.716739 13.936889 4.654101 -12.280622 0.000000 0.000000 0.000000 3.207790 1.952555 1.594522 0.905117 -0.603975 -6.997269 0.283951 -1.831180 8.239891 0.063535 0.010891 -0.010328 -0.143333 0.011749 10.273351 0.945490 2.270980 -1.632043 0.000000 0.000000 0.000000 1.535069 0.682501 7.300139 -15.717756 -6.395402 -1.928245 -48.522275 2.920995 18.130735 7.380146 -25.109012 6.698445 0.000000 0.000000 0.000000 -3.092984 2.287193 6.683393 26.263930 -0.506697 9.716466 44.623139 3.160732 -3.400393 -3.595817 26.117004 -2.810742 0.000000 0.000000 0.000000 
-5.483990 81.409012 -10.067126 179.869671 -5.845208 -179.946511 -2.516935 -0.104375 15.228948 6.144613 -4.423359 -21.432912 2.185003 1.971250 25.003219 0.392966 -5.466824 -12.397722 0.000000 0.000000 0.000000 1.863202 -1.240009 16.000374 -2.957872 -3.843873 -22.952777 0.935273 6.520878 29.604997 13.971114 4.409700 -12.077714 0.000000 0.000000 0.000000 2.876301 2.403191 1.578881 0.587786 -0.604732 -6.955264 0.547730 -1.627892 8.396072 0.011391 -0.024388 0.029066 0.245646 0.152094 10.163666 0.846281 2.469269 -1.417806 0.000000 0.000000 0.000000 1.921629 0.734848 7.324181 -14.164579 -6.594709 -1.242094 -49.621908 6.935858 14.207804 7.440041 -24.462015 6.068221 0.000000 0.000000 0.000000 -2.754517 2.240731 6.564376 24.488808 -1.960102 9.521316 46.912389 -0.185932 -3.252108 -3.569920 25.545746 -2.622082 0.000000 0.000000 0.000000 
-5.375812 81.418373 -10.187147 179.886009 -5.203660 -179.937673 -2.639267 0.370467 15.188295 6.327960 -4.011114 -21.322975 2.316602 2.163002 25.093977 -0.096474 -5.578742 -12.454823 0.000000 0.000000 0.000000 1.785382 -0.836890 15.936769 -2.853578 -3.327471 -22.822018 0.873173 6.540588 29.600196 13.819821 4.234750 -12.085123 0.000000 0.000000 0.000000 2.682791 2.788117 1.592799 0.325142 -0.803554 -6.875279 0.632966 -1.671743 8.542530 -0.027362 0.047049 0.019402 0.476627 0.193675 10.054650 0.653418 2.731858 -1.190416 0.000000 0.000000 0.000000 2.168276 0.621625 7.161874 -12.315604 -6.261936 -0.709709 -51.303818 9.922599 10.382829 7.798817 -23.347781 5.764272 0.000000 0.000000 0.000000 -2.568588 2.314603 6.409823 22.806075 -3.114987 9.479634 48.921879 -2.755645 -3.792093 -3.460612 25.180269 -2.570284 0.000000 0.000000 0.000000 
-5.346723 81.405998 -10.248219 179.924545 -4.649328 179.984391 -2.708830 0.667989 15.123203 6.412243 -3.377698 -21.277354 2.345984 2.528848 25.411791 -0.573290 -5.787953 -12.537387 0.000000 0.000000 0.000000 1.670410 -0.644267 15.948524 -2.849867 -2.488381 -22.754126 0.791283 6.633475 29.608631 13.468272 4.090103 -12.224440 0.000000 0.000000 0.000000 2.622779 2.987500 1.717867 0.110108 -1.028400 -6.742104 0.583873 -1.780977 8.705798 -0.017828 0.085080 0.020245 0.464643 0.167534 9.935442 0.352396 3.027430 -0.949845 0.000000 0.000000 0.000000 2.152309 0.632990 7.067036 -10.671553 -5.703119 -0.388491 -53.093068 11.414900 6.568902 8.187808 -21.562516 5.633035 0.000000 0.000000 0.000000 -2.567921 2.285804 6.330981 21.638104 -3.903398 9.415095 50.593329 -4.173349 -5.057968 -3.295117 24.487425 -2.675473 0.000000 0.000000 0.000000 
-5.399584 81.377579 -10.287542 179.907456 -4.120483 179.971988 -2.773971 0.745145 15.018771 6.480158 -2.763259 -21.360867 2.140362 2.921094 25.960431 -0.916580 -5.967240 -12.668402 0.000000 0.000000 0.000000 1.636189 -0.501708 15.930902 -2.888171 -1.553597 -22.666473 0.707967 6.713799 29.567131 12.989698 4.028087 -12.433221 0.000000 0.000000 0.000000 2.625575 2.888475 1.840859 -0.052802 -1.027091 -6.673714 0.496650 -1.710600 8.869072 0.010671 0.002467 -0.019401 0.220114 -0.045441 9.856859 -0.027362 3.334650 -0.742363 0.000000 0.000000 0.000000 1.960903 0.542143 7.028477 -9.598339 -5.051897 -0.065521 -54.853468 11.603621 3.129576 8.546488 -19.376278 5.842122 0.000000 0.000000 0.000000 -2.753231 2.177306 6.281506 21.313535 -4.247456 9.281054 51.911985 -4.234891 -6.812332 -3.022206 23.626002 -2.833994 0.000000 0.000000 0.000000 
